<mxfile host="Electron" modified="2023-07-10T08:05:22.855Z" agent="Mozilla/5.0 (Windows NT 10.0; Win64; x64) AppleWebKit/537.36 (KHTML, like Gecko) draw.io/21.6.1 Chrome/112.0.5615.204 Electron/24.6.1 Safari/537.36" etag="pfnzjgXWtn7EPIoGSJlK" version="21.6.1" type="device">
  <diagram id="3228e29e-7158-1315-38df-8450db1d8a1d" name="Page-1">
    <mxGraphModel dx="1434" dy="884" grid="1" gridSize="10" guides="1" tooltips="1" connect="1" arrows="1" fold="1" page="1" pageScale="1" pageWidth="1169" pageHeight="827" background="none" math="0" shadow="0">
      <root>
        <mxCell id="0" />
        <mxCell id="1" parent="0" />
        <mxCell id="ieldQGV5o8vVSCVvFZO_-21540" value="" style="group" vertex="1" connectable="0" parent="1">
          <mxGeometry x="179.5" y="10" width="880.5" height="851.5" as="geometry" />
        </mxCell>
        <mxCell id="21532" value="" style="ellipse;fillColor=#12AAB5;opacity=60;strokeColor=none;html=1;fontColor=#FFFFFF;" parent="ieldQGV5o8vVSCVvFZO_-21540" vertex="1">
          <mxGeometry width="870.5" height="761.5" as="geometry" />
        </mxCell>
        <mxCell id="21534" value="Oracle Server" style="text;fontSize=24;align=center;verticalAlign=middle;html=1;fontColor=#FFFFFF;" parent="ieldQGV5o8vVSCVvFZO_-21540" vertex="1">
          <mxGeometry x="269.855" y="141.5" width="330.79" height="106.61" as="geometry" />
        </mxCell>
        <mxCell id="ieldQGV5o8vVSCVvFZO_-21546" value="" style="group" vertex="1" connectable="0" parent="ieldQGV5o8vVSCVvFZO_-21540">
          <mxGeometry x="69.85500000000002" y="340.75" width="330.79" height="249.25" as="geometry" />
        </mxCell>
        <mxCell id="ieldQGV5o8vVSCVvFZO_-21544" value="" style="ellipse;whiteSpace=wrap;html=1;fillColor=#FFFFCC;strokeColor=none;opacity=60;" vertex="1" parent="ieldQGV5o8vVSCVvFZO_-21546">
          <mxGeometry x="20.644999999999982" width="289.5" height="249.25" as="geometry" />
        </mxCell>
        <mxCell id="ieldQGV5o8vVSCVvFZO_-21545" value="Instance" style="text;fontSize=24;align=center;verticalAlign=middle;html=1;fontColor=#FFFFFF;" vertex="1" parent="ieldQGV5o8vVSCVvFZO_-21546">
          <mxGeometry y="71.32" width="330.79" height="106.61" as="geometry" />
        </mxCell>
        <mxCell id="ieldQGV5o8vVSCVvFZO_-21547" value="" style="group" vertex="1" connectable="0" parent="ieldQGV5o8vVSCVvFZO_-21540">
          <mxGeometry x="480.505" y="340.75" width="330.79" height="249.25" as="geometry" />
        </mxCell>
        <mxCell id="ieldQGV5o8vVSCVvFZO_-21548" value="" style="ellipse;whiteSpace=wrap;html=1;fillColor=#99CCFF;strokeColor=none;opacity=60;" vertex="1" parent="ieldQGV5o8vVSCVvFZO_-21547">
          <mxGeometry x="20.644999999999982" width="289.5" height="249.25" as="geometry" />
        </mxCell>
        <mxCell id="ieldQGV5o8vVSCVvFZO_-21549" value="Database" style="text;fontSize=24;align=center;verticalAlign=middle;html=1;fontColor=#FFFFFF;" vertex="1" parent="ieldQGV5o8vVSCVvFZO_-21547">
          <mxGeometry y="71.32" width="330.79" height="106.61" as="geometry" />
        </mxCell>
      </root>
    </mxGraphModel>
  </diagram>
</mxfile>
